<?xml version="1.0" standalone="no"?>
<!DOCTYPE svg PUBLIC "-//W3C//DTD SVG 20010904//EN"
 "http://www.w3.org/TR/2001/REC-SVG-20010904/DTD/svg10.dtd">
<svg version="1.0" xmlns="http://www.w3.org/2000/svg"
 width="200.000000pt" height="100.000000pt" viewBox="0 0 200.000000 100.000000"
 preserveAspectRatio="xMidYMid meet">
<metadata>
Created by potrace 1.15, written by Peter Selinger 2001-2017
</metadata>
<g transform="translate(0.000000,100.000000) scale(0.100000,-0.100000)"
fill="#000000" stroke="none">
<path d="M410 535 l0 -205 45 0 45 0 0 205 0 205 -45 0 -45 0 0 -205z"/>
<path d="M590 535 l0 -205 45 0 45 0 0 205 0 205 -45 0 -45 0 0 -205z"/>
<path d="M770 535 l0 -205 45 0 45 0 0 205 0 205 -45 0 -45 0 0 -205z"/>
<path d="M900 705 l0 -35 60 0 60 0 0 -170 0 -170 45 0 45 0 0 170 0 170 60 0
60 0 0 35 0 35 -165 0 -165 0 0 -35z"/>
<path d="M1290 535 l0 -205 45 0 45 0 0 80 c0 77 1 80 23 80 38 0 56 -22 75
-90 l17 -65 51 -3 52 -3 -19 68 c-11 37 -28 80 -39 95 l-20 27 30 30 c24 24
30 38 30 73 0 88 -49 118 -195 118 l-95 0 0 -205z"/>
</g>
</svg>
